<svg xmlns="http://www.w3.org/2000/svg" width="10" height="10" fill="none" viewBox="0 0 10 10"><path fill="#000" d="M9.68749 3.75H6.24999V0.312506C6.24999 0.139913 6.11007 0 5.9375 0H4.0625C3.88991 0 3.75 0.139913 3.75 0.312506V3.75H0.312506C0.139912 3.75 0 3.88992 0 4.06251V5.93751C0 6.11008 0.139912 6.25 0.312506 6.25H3.75V9.68751C3.75 9.86009 3.88991 10 4.0625 10H5.9375C6.11007 10 6.25 9.86009 6.25 9.68751V6.25H9.68749C9.86007 6.25 10 6.11008 10 5.93751V4.06251C9.99998 3.88992 9.86007 3.75 9.68749 3.75Z"/></svg>