<svg xmlns="http://www.w3.org/2000/svg" width="16" height="16" fill="none" viewBox="0 0 16 16"><path fill="#007AFF" d="M7.99999 15.0588C11.4369 15.0588 14.3129 12.6473 15.0588 9.41177C14.3129 6.17626 11.4369 3.76471 7.99999 3.76471C4.56309 3.76471 1.68708 6.17626 0.941162 9.41177C1.68708 12.6473 4.56309 15.0588 7.99999 15.0588Z" opacity=".2"/><path fill="#007AFF" d="M5.77296 6.17106C6.38868 5.63102 7.17937 5.33333 8.00001 5.33333C8.82098 5.33333 9.61069 5.62972 10.2236 6.16764L10.7246 6.60726L11.6043 5.60531L11.1034 5.16569C10.2471 4.41406 9.14503 4 8.00001 4C6.85532 4 5.75229 4.41536 4.89373 5.16895L4.39275 5.60872L5.27231 6.61068L5.77296 6.17106Z"/><path fill="#007AFF" d="M8 16C12.4113 16 16 12.4113 16 8C16 3.5887 12.4113 -2.98023e-07 8 -2.98023e-07C3.5887 -2.98023e-07 -2.98023e-07 3.5887 -2.98023e-07 8C-2.98023e-07 12.4113 3.5887 16 8 16ZM8 1.33333C11.6759 1.33333 14.6667 4.32406 14.6667 8C14.6667 11.6759 11.6759 14.6667 8 14.6667C4.32406 14.6667 1.33333 11.6759 1.33333 8C1.33333 4.32406 4.32406 1.33333 8 1.33333Z"/><path fill="#007AFF" d="M11.3333 10H10V8.66667H11.3333V10Z"/><path fill="#007AFF" d="M6 10L4.66667 10L4.66667 8.66667L6 8.66667L6 10Z"/></svg>