<svg xmlns="http://www.w3.org/2000/svg" width="16" height="16" fill="none" viewBox="0 0 16 16"><path fill="#007AFF" d="M8 15.3333C11.4767 15.3333 14.3861 12.9134 15.1406 9.66667C14.3861 6.41992 11.4767 4 8 4C4.52327 4 1.61393 6.41992 0.859375 9.66667C1.61393 12.9134 4.52327 15.3333 8 15.3333Z" opacity=".2"/><path fill="#007AFF" d="M4.14832 4.40903L3.40906 5.5184L5.13171 6.66668L3.40906 7.81495L4.14832 8.92433L7.53503 6.66668L4.14832 4.40903Z"/><path fill="#007AFF" d="M11.8517 4.40903L8.46497 6.66668L11.8517 8.92433L12.5909 7.81495L10.8683 6.66668L12.5909 5.5184L11.8517 4.40903Z"/><path fill="#007AFF" d="M8.00326 9.33008C6.85872 9.33008 5.7557 9.74528 4.89697 10.499L4.396 10.9386L5.27572 11.9406L5.77669 11.501C6.39193 10.9609 7.18294 10.6634 8.00374 10.6634C8.82471 10.6634 9.61475 10.9596 10.2271 11.4977L10.728 11.9373L11.6077 10.9357L11.1069 10.4956C10.2503 9.74398 9.14828 9.33008 8.00326 9.33008Z"/><path fill="#007AFF" d="M8 0C3.5887 0 0 3.5887 0 8C0 12.4113 3.5887 16 8 16C12.4113 16 16 12.4113 16 8C16 3.5887 12.4113 0 8 0ZM8 14.6667C4.32406 14.6667 1.33333 11.6759 1.33333 8C1.33333 4.32406 4.32406 1.33333 8 1.33333C11.6759 1.33333 14.6667 4.32406 14.6667 8C14.6667 11.6759 11.6759 14.6667 8 14.6667Z"/></svg>