<svg width="40" height="34" viewBox="0 0 40 34" fill="none" xmlns="http://www.w3.org/2000/svg">
<path d="M36.2703 11.4883C35.9363 10.6064 35.5261 9.73917 35.0375 8.89518C33.1062 5.55934 30.2465 3.10025 26.9921 1.66707L21.5777 11.3901L36.2703 11.4883Z" fill="#FD898C"/>
<path d="M33.2145 27.8212C33.8134 27.0919 34.3614 26.304 34.8501 25.46C36.7814 22.1242 37.4871 18.425 37.1045 14.8978L25.9535 15.0833L33.2145 27.8212Z" fill="#AE93E8"/>
<path d="M22.7512 0.475503C21.8311 0.322017 20.8858 0.242126 19.9218 0.242126C16.1115 0.242126 12.5944 1.49017 9.76147 3.59752L15.4204 13.1958L22.7512 0.475503Z" fill="#E8BD93"/>
<path d="M6.78548 6.08451C6.18663 6.81384 5.63857 7.60171 5.14994 8.4457C3.21863 11.7815 2.5129 15.4808 2.89549 19.0079L14.0465 18.8224L6.78548 6.08451Z" fill="#E893D0"/>
<path d="M3.7086 22.5117C4.04255 23.3936 4.45274 24.2608 4.94137 25.1048C6.87268 28.4407 9.73236 30.8997 12.9868 32.3329L18.4012 22.6099L3.7086 22.5117Z" fill="#78A8EF"/>
<path d="M17.2883 33.543C18.2085 33.6965 19.1537 33.7764 20.1178 33.7764C23.928 33.7764 27.4451 32.5284 30.2781 30.421L24.6192 20.8227L17.2883 33.543Z" fill="#3D9994"/>
</svg>
