<svg width="40" height="37" viewBox="0 0 40 37" fill="none" xmlns="http://www.w3.org/2000/svg">
<path fill-rule="evenodd" clip-rule="evenodd" d="M27.3485 2.02831C30.7656 3.56497 33.7641 6.20022 35.786 9.76646C36.2972 10.668 36.7268 11.5954 37.0768 12.5392L37.7933 14.4711L19.1793 14.3441L26.1816 1.5036L27.3485 2.02831ZM27.3495 5.18601L23.8796 11.5489L33.6045 11.6152C33.5287 11.4718 33.4506 11.329 33.37 11.1869C31.8777 8.5549 29.7676 6.52699 27.3495 5.18601Z" fill="black"/>
<path fill-rule="evenodd" clip-rule="evenodd" d="M37.9665 16.2752C38.3682 20.057 37.6263 24.0189 35.6043 27.5852C35.0932 28.4867 34.5193 29.3293 33.8916 30.1099L32.6068 31.7077L23.4079 15.2288L37.8293 14.9838L37.9665 16.2752ZM35.2815 17.8549L28.1353 17.9763L32.9413 26.5857C33.0254 26.4472 33.1077 26.3068 33.1883 26.1647C34.6806 23.5327 35.3501 20.6579 35.2815 17.8549Z" fill="black"/>
<path fill-rule="evenodd" clip-rule="evenodd" d="M9.29898 4.18137C12.2887 1.93596 16.0021 0.605835 20.0208 0.605835C21.0364 0.605835 22.0334 0.690823 23.0046 0.854395L24.9893 1.18864L15.6555 17.5405L8.29492 4.93547L9.29898 4.18137ZM12.0046 5.72801L15.628 11.9331L20.4825 3.42835C20.3292 3.42374 20.1753 3.42142 20.0208 3.42142C17.0742 3.42142 14.3277 4.26637 12.0046 5.72801Z" fill="black"/>
<path fill-rule="evenodd" clip-rule="evenodd" d="M2.03348 20.6315C1.63177 16.8496 2.37371 12.8877 4.39566 9.32148C4.90681 8.41994 5.48068 7.57739 6.10837 6.79677L7.39315 5.19897L16.5921 21.6778L2.17065 21.9228L2.03348 20.6315ZM4.71846 19.0517L11.8647 18.9303L7.05873 10.321C6.97463 10.4595 6.89227 10.5998 6.8117 10.7419C5.31943 13.3739 4.64986 16.2488 4.71846 19.0517Z" fill="black"/>
<path fill-rule="evenodd" clip-rule="evenodd" d="M12.6309 34.9717C9.21375 33.4351 6.21528 30.7998 4.19333 27.2336C3.68218 26.332 3.25256 25.4047 2.90252 24.4608L2.18605 22.5289L20.8001 22.6559L13.7977 35.4964L12.6309 34.9717ZM12.6299 31.814L16.0997 25.4512L6.37487 25.3848C6.45064 25.5282 6.5288 25.671 6.60936 25.8131C8.10163 28.4451 10.2118 30.473 12.6299 31.814Z" fill="black"/>
<path fill-rule="evenodd" clip-rule="evenodd" d="M30.74 32.8372C27.7503 35.0826 24.0368 36.4127 20.0181 36.4127C19.0025 36.4127 18.0056 36.3277 17.0343 36.1641L15.0497 35.8299L24.3834 19.478L31.744 32.0831L30.74 32.8372ZM28.0343 31.2905L24.4109 25.0855L19.5564 33.5902C19.7097 33.5948 19.8636 33.5971 20.0181 33.5971C22.9647 33.5971 25.7113 32.7522 28.0343 31.2905Z" fill="black"/>
</svg>
