<svg width="155" height="34" viewBox="0 0 155 34" fill="none" xmlns="http://www.w3.org/2000/svg">
<path d="M30.2734 12.7835C29.9947 12.0513 29.6523 11.3311 29.2445 10.6303C27.6325 7.86022 25.2456 5.81822 22.5293 4.62812L18.0101 12.702L30.2734 12.7835Z" fill="#FD898C"/>
<path d="M27.7229 26.3462C28.2227 25.7406 28.6802 25.0864 29.088 24.3855C30.7 21.6155 31.2891 18.5437 30.9697 15.6148L21.6624 15.7688L27.7229 26.3462Z" fill="#AE93E8"/>
<path d="M18.9896 3.63868C18.2216 3.51123 17.4326 3.44489 16.628 3.44489C13.4477 3.44489 10.5121 4.48125 8.14758 6.23117L12.8709 14.2015L18.9896 3.63868Z" fill="#E8BD93"/>
<path d="M5.66358 8.2963C5.16375 8.90193 4.7063 9.55617 4.29845 10.257C2.68647 13.027 2.09742 16.0988 2.41675 19.0278L11.7241 18.8737L5.66358 8.2963Z" fill="#E893D0"/>
<path d="M3.09545 21.9373C3.37419 22.6696 3.71655 23.3897 4.1244 24.0906C5.73639 26.8606 8.12325 28.9026 10.8396 30.0927L15.3588 22.0188L3.09545 21.9373Z" fill="#78A8EF"/>
<path d="M14.4299 31.0976C15.1979 31.225 15.9869 31.2914 16.7916 31.2914C19.9718 31.2914 22.9074 30.255 25.272 28.5051L20.5487 20.5348L14.4299 31.0976Z" fill="#3D9994"/>
<path d="M38.976 21.3965C39.9789 22.0798 40.9438 22.4215 41.8706 22.4215C42.8101 22.4215 43.5401 22.2064 44.0606 21.7761C44.5938 21.3458 44.8604 20.7511 44.8604 19.9918C44.8604 19.3717 44.67 18.8845 44.2891 18.5301C43.8828 18.1378 43.2481 17.7455 42.3848 17.3532C42.1308 17.2267 41.9531 17.1381 41.8515 17.0875C40.9882 16.6825 40.3154 16.2143 39.8329 15.6828C39.3632 15.1513 39.1283 14.3983 39.1283 13.4239C39.1283 12.4495 39.4901 11.6522 40.2138 11.0321C40.9501 10.412 41.8325 10.102 42.8608 10.102C43.8892 10.102 44.8287 10.2855 45.6793 10.6525L45.3936 11.6965C44.6319 11.4434 43.8892 11.3168 43.1655 11.3168C42.4419 11.3168 41.8325 11.5067 41.3374 11.8863C40.8422 12.2533 40.5947 12.7405 40.5947 13.348C40.5947 13.9554 40.7661 14.4426 41.1088 14.8096C41.5024 15.2146 42.2007 15.6448 43.2036 16.1004C44.1177 16.5307 44.7398 16.8913 45.0699 17.1824C45.5269 17.6 45.8126 17.9354 45.9269 18.1884C46.1681 18.7959 46.2887 19.3717 46.2887 19.9158C46.2887 21.0674 45.8888 21.9786 45.0889 22.6493C44.3018 23.32 43.2862 23.6554 42.042 23.6554C40.8105 23.6554 39.6869 23.2377 38.6713 22.4025L38.976 21.3965Z" fill="black"/>
<path d="M53.1914 22.4785L53.3818 23.3137C52.9121 23.5415 52.3471 23.6554 51.6869 23.6554C50.7475 23.6554 50.1254 23.4023 49.8207 22.8961C49.516 22.3899 49.3636 21.5863 49.3636 20.4853V15.5119H47.8401V14.6957L49.3636 14.5059V12.5317L50.7348 12.3039V14.5059H53.1914V15.5119H50.7348V20.0677C50.7348 21.2446 50.8363 21.9596 51.0395 22.2127C51.2934 22.5038 51.6362 22.6493 52.0678 22.6493C52.4995 22.6493 52.874 22.5923 53.1914 22.4785Z" fill="black"/>
<path d="M56.6458 14.335C56.8998 14.4363 57.0267 14.7653 57.0267 15.3221C57.0267 15.8663 56.9823 16.3725 56.8934 16.8407H57.0077C57.287 15.9422 57.6107 15.2905 57.9789 14.8855C58.3471 14.4806 58.9247 14.2781 59.7119 14.2781L60.3022 14.354L60.1308 15.6638C59.9658 15.6258 59.7626 15.6069 59.5214 15.6069C59.0263 15.6069 58.601 15.7714 58.2455 16.1004C57.9027 16.4168 57.6488 16.847 57.4838 17.3912C57.1664 18.3656 57.0077 19.4603 57.0077 20.6751V23.4276H55.6937V17.2963C55.6937 16.0181 55.6238 15.0753 55.4842 14.4679L56.6458 14.335Z" fill="black"/>
<path d="M67.1628 16.4611C67.1628 16.0941 67.0485 15.8157 66.82 15.6258C66.5915 15.436 66.2868 15.3411 65.9059 15.3411C65.1442 15.3411 64.5475 15.6575 64.1158 16.2902C63.6842 16.9103 63.4366 17.6633 63.3731 18.5491C65.8996 18.5491 67.1628 17.8531 67.1628 16.4611ZM65.525 23.6554C63.1383 23.6554 61.9449 22.1368 61.9449 19.0996C61.9449 17.7076 62.294 16.556 62.9923 15.6448C63.7032 14.7337 64.6998 14.2781 65.9821 14.2781C66.7692 14.2781 67.3913 14.4679 67.8484 14.8476C68.3181 15.2146 68.553 15.7271 68.553 16.3851C68.553 17.0305 68.3943 17.562 68.0769 17.9796C67.7722 18.3846 67.3532 18.6946 66.82 18.9098C65.817 19.3147 64.6554 19.5172 63.335 19.5172C63.335 21.5293 64.1412 22.5354 65.7536 22.5354C66.5661 22.5354 67.3342 22.3139 68.0578 21.871L68.2673 22.6113C67.9499 22.9277 67.531 23.1808 67.0104 23.3706C66.5026 23.5604 66.0075 23.6554 65.525 23.6554Z" fill="black"/>
<path d="M72.4687 22.6113C73.0273 22.6113 73.497 22.4848 73.8779 22.2317C74.2587 21.9659 74.4492 21.5926 74.4492 21.1117C74.4492 20.6055 74.208 20.2069 73.7255 19.9158C73.4843 19.7766 73.1923 19.6374 72.8495 19.4982C72.5067 19.3464 72.2973 19.2515 72.2211 19.2135C71.5863 18.9351 71.0912 18.6061 70.7357 18.2264C70.3929 17.8468 70.2215 17.3089 70.2215 16.6129C70.2215 15.9042 70.5072 15.3411 71.0785 14.9235C71.6498 14.4932 72.3227 14.2781 73.0971 14.2781C73.8715 14.2781 74.5698 14.4299 75.1919 14.7337L74.9824 15.5879C74.3476 15.4107 73.7827 15.3221 73.2875 15.3221C72.8051 15.3221 72.3861 15.436 72.0307 15.6638C71.6752 15.8789 71.4974 16.1826 71.4974 16.5749C71.4974 16.9673 71.618 17.2773 71.8593 17.5051C72.1005 17.7202 72.348 17.8847 72.602 17.9986C72.8686 18.1125 73.1479 18.2327 73.4399 18.3593C73.7446 18.4732 73.9414 18.5554 74.0302 18.6061C74.1191 18.6567 74.2841 18.7516 74.5254 18.8908C74.7666 19.0173 74.9316 19.1376 75.0205 19.2515C75.1221 19.3654 75.2363 19.5172 75.3633 19.707C75.6045 20.0234 75.7251 20.4727 75.7251 21.0548C75.7251 21.89 75.4141 22.5354 74.792 22.991C74.1699 23.4339 73.3764 23.6554 72.4115 23.6554C71.4593 23.6554 70.6151 23.339 69.8787 22.7062L70.0882 21.9469C70.8119 22.3899 71.6053 22.6113 72.4687 22.6113Z" fill="black"/>
<path d="M79.6844 22.6113C80.243 22.6113 80.7127 22.4848 81.0936 22.2317C81.4745 21.9659 81.6649 21.5926 81.6649 21.1117C81.6649 20.6055 81.4237 20.2069 80.9412 19.9158C80.7 19.7766 80.408 19.6374 80.0652 19.4982C79.7225 19.3464 79.513 19.2515 79.4368 19.2135C78.802 18.9351 78.3069 18.6061 77.9514 18.2264C77.6086 17.8468 77.4372 17.3089 77.4372 16.6129C77.4372 15.9042 77.7229 15.3411 78.2942 14.9235C78.8655 14.4932 79.5384 14.2781 80.3128 14.2781C81.0872 14.2781 81.7855 14.4299 82.4076 14.7337L82.1981 15.5879C81.5633 15.4107 80.9984 15.3221 80.5032 15.3221C80.0208 15.3221 79.6018 15.436 79.2464 15.6638C78.8909 15.8789 78.7131 16.1826 78.7131 16.5749C78.7131 16.9673 78.8338 17.2773 79.075 17.5051C79.3162 17.7202 79.5638 17.8847 79.8177 17.9986C80.0843 18.1125 80.3636 18.2327 80.6556 18.3593C80.9603 18.4732 81.1571 18.5554 81.2459 18.6061C81.3348 18.6567 81.4999 18.7516 81.7411 18.8908C81.9823 19.0173 82.1473 19.1376 82.2362 19.2515C82.3378 19.3654 82.452 19.5172 82.579 19.707C82.8202 20.0234 82.9408 20.4727 82.9408 21.0548C82.9408 21.89 82.6298 22.5354 82.0077 22.991C81.3856 23.4339 80.5921 23.6554 79.6272 23.6554C78.6751 23.6554 77.8308 23.339 77.0944 22.7062L77.3039 21.9469C78.0276 22.3899 78.8211 22.6113 79.6844 22.6113Z" fill="black"/>
<path d="M84.3102 15.5119V14.6957L85.8336 14.5059V13.2151C85.8336 10.5955 86.7985 9.28574 88.7283 9.28574C89.1472 9.28574 89.5218 9.36799 89.8518 9.53251L89.6614 10.3677C89.4837 10.3171 89.2171 10.2918 88.8616 10.2918C88.5061 10.2918 88.2077 10.3741 87.9665 10.5386C87.738 10.6904 87.573 10.9182 87.4714 11.2219C87.2937 11.7028 87.2048 12.3799 87.2048 13.253V14.5059H89.6614V15.5119H87.2048L87.1857 25.1929C87.1857 25.7244 87.154 26.1041 87.0905 26.3319C87.027 26.5723 86.881 26.7115 86.6525 26.7495L85.5861 26.5217C85.7765 26.2939 85.8717 25.7624 85.8717 24.9272L85.8336 15.5119H84.3102Z" fill="black"/>
<path d="M91.1949 15.8157C91.1949 15.2082 91.1187 14.759 90.9663 14.4679L92.0518 14.2781C92.2676 14.3287 92.4009 14.4553 92.4517 14.6577C92.5152 14.8602 92.5469 15.069 92.5469 15.2842C92.5469 15.436 92.5216 16.3092 92.4708 17.9037C92.42 19.4856 92.3946 20.3651 92.3946 20.5423C92.3946 20.7194 92.4009 20.9219 92.4136 21.1497C92.439 21.3648 92.5025 21.5926 92.6041 21.8331C92.7818 22.3266 93.2135 22.5734 93.899 22.5734C94.4069 22.5734 94.8385 22.3962 95.194 22.0419C95.5622 21.6749 95.8288 21.194 95.9938 20.5992C96.3112 19.5235 96.4699 18.3466 96.4699 17.0685V14.5059H97.7458V19.6881C97.7458 20.8143 97.8284 21.5926 97.9934 22.0229C98.1584 22.4405 98.5266 22.6493 99.0979 22.6493L99.136 23.5035C98.9329 23.5541 98.679 23.5794 98.3743 23.5794C97.7395 23.5794 97.2951 23.3959 97.0412 23.0289C96.8 22.6493 96.6794 22.2127 96.6794 21.7192C96.6794 21.58 96.6857 21.4344 96.6984 21.2826H96.5842C96.381 22.0545 96.0065 22.643 95.4606 23.0479C94.9274 23.4529 94.2228 23.6554 93.3468 23.6554C92.4835 23.6554 91.8804 23.3896 91.5376 22.8581C91.1949 22.3266 91.0235 21.5989 91.0235 20.6751C91.0235 20.5612 91.0489 19.745 91.0996 18.2264C91.1631 16.7078 91.1949 15.9042 91.1949 15.8157Z" fill="black"/>
<path d="M101.387 21.7951V9.51352L102.758 9.28574V21.0168C102.758 21.6875 102.809 22.1241 102.911 22.3266C103.012 22.5164 103.304 22.6113 103.787 22.6113L103.825 23.4466C103.621 23.5351 103.279 23.5794 102.796 23.5794C102.314 23.5794 101.958 23.4402 101.73 23.1618C101.501 22.8834 101.387 22.4278 101.387 21.7951Z" fill="black"/>
<path d="M113.682 11.5636V23.4276H112.159L112.216 11.5636H108.845L108.902 10.3298H117.091L116.939 11.5636H113.682Z" fill="black"/>
<path d="M124.179 16.9546V15.5689C123.811 15.3791 123.258 15.2842 122.522 15.2842C120.643 15.2842 119.704 16.6952 119.704 19.5172C119.704 21.58 120.332 22.6113 121.589 22.6113C122.122 22.6113 122.567 22.4342 122.922 22.0798C123.29 21.7128 123.563 21.2193 123.741 20.5992C124.033 19.5235 124.179 18.3087 124.179 16.9546ZM121.456 23.6554C120.351 23.6554 119.545 23.2757 119.037 22.5164C118.529 21.7571 118.275 20.6815 118.275 19.2894C118.275 17.8847 118.631 16.7015 119.342 15.7397C120.065 14.7653 121.126 14.2781 122.522 14.2781C123.017 14.2781 123.506 14.3287 123.988 14.4299C124.484 14.5312 124.972 14.6767 125.455 14.8665V19.6881C125.455 20.9788 125.569 21.7951 125.798 22.1368C126.013 22.4785 126.375 22.6493 126.883 22.6493L126.921 23.5035C126.718 23.5541 126.464 23.5794 126.159 23.5794C125.487 23.5794 125.004 23.3453 124.712 22.8771C124.496 22.5354 124.388 22.1304 124.388 21.6622C124.388 21.5104 124.401 21.3458 124.426 21.1687H124.312C124.096 21.928 123.747 22.5354 123.265 22.991C122.795 23.4339 122.192 23.6554 121.456 23.6554Z" fill="black"/>
<path d="M130.697 22.6113C131.255 22.6113 131.725 22.4848 132.106 22.2317C132.487 21.9659 132.677 21.5926 132.677 21.1117C132.677 20.6055 132.436 20.2069 131.953 19.9158C131.712 19.7766 131.42 19.6374 131.077 19.4982C130.735 19.3464 130.525 19.2515 130.449 19.2135C129.814 18.9351 129.319 18.6061 128.964 18.2264C128.621 17.8468 128.449 17.3089 128.449 16.6129C128.449 15.9042 128.735 15.3411 129.306 14.9235C129.878 14.4932 130.551 14.2781 131.325 14.2781C132.099 14.2781 132.798 14.4299 133.42 14.7337L133.21 15.5879C132.575 15.4107 132.011 15.3221 131.515 15.3221C131.033 15.3221 130.614 15.436 130.259 15.6638C129.903 15.8789 129.725 16.1826 129.725 16.5749C129.725 16.9673 129.846 17.2773 130.087 17.5051C130.328 17.7202 130.576 17.8847 130.83 17.9986C131.096 18.1125 131.376 18.2327 131.668 18.3593C131.972 18.4732 132.169 18.5554 132.258 18.6061C132.347 18.6567 132.512 18.7516 132.753 18.8908C132.994 19.0173 133.159 19.1376 133.248 19.2515C133.35 19.3654 133.464 19.5172 133.591 19.707C133.832 20.0234 133.953 20.4727 133.953 21.0548C133.953 21.89 133.642 22.5354 133.02 22.991C132.398 23.4339 131.604 23.6554 130.639 23.6554C129.687 23.6554 128.843 23.339 128.107 22.7062L128.316 21.9469C129.04 22.3899 129.833 22.6113 130.697 22.6113Z" fill="black"/>
<path d="M136.274 23.4276V9.51352L137.569 9.28574L137.589 14.5059C137.589 15.1766 137.538 15.803 137.436 16.3851H137.55C137.766 15.7397 138.134 15.2272 138.655 14.8476C139.175 14.4679 139.785 14.2781 140.483 14.2781C141.181 14.2781 141.753 14.4679 142.197 14.8476C142.654 15.2272 142.883 15.765 142.883 16.4611C142.883 17.1444 142.61 17.7202 142.064 18.1884C141.518 18.644 140.839 18.9604 140.026 19.1376L141.131 21.0548C141.473 21.6369 141.784 22.0482 142.064 22.2886C142.343 22.5164 142.673 22.6303 143.054 22.6303L143.092 23.4845C143.016 23.5478 142.825 23.5794 142.521 23.5794C141.911 23.5794 141.423 23.4276 141.054 23.1239C140.686 22.8075 140.331 22.3203 139.988 21.6622L138.503 18.8338V18.4922C139.302 18.4922 139.994 18.315 140.578 17.9607C141.162 17.6063 141.454 17.1001 141.454 16.4421C141.454 16.0877 141.334 15.8157 141.093 15.6258C140.864 15.436 140.566 15.3411 140.197 15.3411C139.601 15.3411 139.093 15.5626 138.674 16.0055C137.938 16.8027 137.569 17.9733 137.569 19.5172V23.4276H136.274Z" fill="black"/>
<path d="M147.118 22.6113C147.676 22.6113 148.146 22.4848 148.527 22.2317C148.908 21.9659 149.098 21.5926 149.098 21.1117C149.098 20.6055 148.857 20.2069 148.375 19.9158C148.134 19.7766 147.842 19.6374 147.499 19.4982C147.156 19.3464 146.946 19.2515 146.87 19.2135C146.236 18.9351 145.74 18.6061 145.385 18.2264C145.042 17.8468 144.871 17.3089 144.871 16.6129C144.871 15.9042 145.156 15.3411 145.728 14.9235C146.299 14.4932 146.972 14.2781 147.746 14.2781C148.521 14.2781 149.219 14.4299 149.841 14.7337L149.632 15.5879C148.997 15.4107 148.432 15.3221 147.937 15.3221C147.454 15.3221 147.035 15.436 146.68 15.6638C146.324 15.8789 146.147 16.1826 146.147 16.5749C146.147 16.9673 146.267 17.2773 146.508 17.5051C146.75 17.7202 146.997 17.8847 147.251 17.9986C147.518 18.1125 147.797 18.2327 148.089 18.3593C148.394 18.4732 148.591 18.5554 148.679 18.6061C148.768 18.6567 148.933 18.7516 149.175 18.8908C149.416 19.0173 149.581 19.1376 149.67 19.2515C149.771 19.3654 149.886 19.5172 150.012 19.707C150.254 20.0234 150.374 20.4727 150.374 21.0548C150.374 21.89 150.063 22.5354 149.441 22.991C148.819 23.4339 148.026 23.6554 147.061 23.6554C146.109 23.6554 145.264 23.339 144.528 22.7062L144.737 21.9469C145.461 22.3899 146.255 22.6113 147.118 22.6113Z" fill="black"/>
</svg>
